# xmcd CD database file
#
# Track frame offsets:
#	150
#	14462
#	31937
#	46262
#	63887
#	83312
#	106337
#	126887
#	147887
#	165362
#	185125
#
# Disc length: 2770 seconds
#
# Revision: 2
# Processed by: cddbd v1.5.2PL0 Copyright (c) Steve Scherf et al.
# Submitted via: CDex 1.70beta2
#
DISCID=830ad00b
DTITLE=Danny Litani - Very Together
DYEAR=1992
DGENRE=Blues
TTITLE0=tzif tzif
TTITLE1=Trust me please
TTITLE2=Old Man
TTITLE3=The glow between us
TTITLE4=you said youd be back
TTITLE5=No good to be alone
TTITLE6=Just be yourself
TTITLE7=The day the heavens fell
TTITLE8=Dawn in tel Aviv
TTITLE9=Ophelia
TTITLE10=Very together
EXTD=YEAR: 1992
EXTT0=
EXTT1=
EXTT2=
EXTT3=
EXTT4=
EXTT5=
EXTT6=
EXTT7=
EXTT8=
EXTT9=
EXTT10=
PLAYORDER=
